STARTFONT 2.1
COMMENT converted Oberon font (using FontToBDF by R.Crelier 10.1.91)
FONT Math24.Scn.Fnt
SIZE 24 75 75
FONTBOUNDINGBOX  23 26 0 -7
STARTPROPERTIES 3
FONT_ASCENT 19
FONT_DESCENT 7
DEFAULT_CHAR 0
ENDPROPERTIES
CHARS 96
STARTCHAR c0
ENCODING -1 0
SWIDTH 0 0
DWIDTH 0 0
BBX 0 0 0 0
BITMAP
ENDCHAR
STARTCHAR c32
ENCODING -1 32
SWIDTH 516 0
DWIDTH 16 0
BBX 13 17 2 0
BITMAP
07E0
1C18
2400
4400
4400
8400
8400
8400
8400
8400
8400
8400
4400
4400
2400
1C18
07E0
ENDCHAR
STARTCHAR c33
ENCODING -1 33
SWIDTH 580 0
DWIDTH 18 0
BBX 13 17 3 0
BITMAP
FFE0
8810
8808
8808
8808
8808
8808
8810
8FE0
8880
8840
8840
8820
8810
8810
8808
8808
ENDCHAR
STARTCHAR c34
ENCODING -1 34
SWIDTH 161 0
DWIDTH 5 0
BBX 2 5 2 12
BITMAP
C0
C0
80
80
80
ENDCHAR
STARTCHAR c35
ENCODING -1 35
SWIDTH 483 0
DWIDTH 15 0
BBX 12 13 1 0
BITMAP
0030
00C0
0300
0C00
3000
C000
3000
0C00
0300
00C0
0030
0000
FFF0
ENDCHAR
STARTCHAR c36
ENCODING -1 36
SWIDTH 451 0
DWIDTH 14 0
BBX 11 17 2 0
BITMAP
0020
0020
0040
0080
0080
0100
0200
0200
0400
0800
0800
1000
2000
2000
4000
8000
8000
ENDCHAR
STARTCHAR c37
ENCODING -1 37
SWIDTH 677 0
DWIDTH 21 0
BBX 19 9 1 2
BITMAP
3E0F80
411040
80A020
804020
804020
804020
80A020
411040
3E0F80
ENDCHAR
STARTCHAR c38
ENCODING -1 38
SWIDTH 193 0
DWIDTH 6 0
BBX 3 3 2 14
BITMAP
E0
E0
E0
ENDCHAR
STARTCHAR c39
ENCODING -1 39
SWIDTH 483 0
DWIDTH 15 0
BBX 13 13 0 0
BITMAP
0FF8
0018
0028
0048
0088
0108
0208
0408
0808
1000
2000
4000
8000
ENDCHAR
STARTCHAR c40
ENCODING -1 40
SWIDTH 483 0
DWIDTH 15 0
BBX 13 13 2 0
BITMAP
FF80
C000
A000
9000
8800
8400
8200
8100
8080
0040
0020
0010
0008
ENDCHAR
STARTCHAR c41
ENCODING -1 41
SWIDTH 483 0
DWIDTH 15 0
BBX 13 13 2 0
BITMAP
0008
0010
0020
0040
8080
8100
8200
8400
8800
9000
A000
C000
FF80
ENDCHAR
STARTCHAR c42
ENCODING -1 42
SWIDTH 483 0
DWIDTH 15 0
BBX 13 13 0 0
BITMAP
8000
4000
2000
1000
0808
0408
0208
0108
0088
0048
0028
0018
0FF8
ENDCHAR
STARTCHAR c43
ENCODING -1 43
SWIDTH 645 0
DWIDTH 20 0
BBX 18 11 1 1
BITMAP
040800
080400
100200
200100
400080
FFFFC0
400080
200100
100200
080400
040800
ENDCHAR
STARTCHAR c44
ENCODING -1 44
SWIDTH 645 0
DWIDTH 20 0
BBX 17 11 2 1
BITMAP
040000
080000
100000
200000
400000
FFFF80
400000
200000
100000
080000
040000
ENDCHAR
STARTCHAR c45
ENCODING -1 45
SWIDTH 419 0
DWIDTH 13 0
BBX 11 17 1 0
BITMAP
0400
0E00
1500
2480
4440
8420
0400
0400
0400
0400
0400
0400
0400
0400
0400
0400
0400
ENDCHAR
STARTCHAR c46
ENCODING -1 46
SWIDTH 645 0
DWIDTH 20 0
BBX 17 11 1 1
BITMAP
001000
000800
000400
000200
000100
FFFF80
000100
000200
000400
000800
001000
ENDCHAR
STARTCHAR c47
ENCODING -1 47
SWIDTH 419 0
DWIDTH 13 0
BBX 11 17 1 0
BITMAP
0400
0400
0400
0400
0400
0400
0400
0400
0400
0400
0400
8420
4440
2480
1500
0E00
0400
ENDCHAR
STARTCHAR c48
ENCODING -1 48
SWIDTH 290 0
DWIDTH 9 0
BBX 7 8 1 9
BITMAP
38
44
82
82
82
82
44
38
ENDCHAR
STARTCHAR c49
ENCODING -1 49
SWIDTH 483 0
DWIDTH 15 0
BBX 11 13 2 0
BITMAP
0400
0400
0400
0400
0400
FFE0
0400
0400
0400
0400
0400
0000
FFE0
ENDCHAR
STARTCHAR c50
ENCODING -1 50
SWIDTH 258 0
DWIDTH 8 0
BBX 5 5 2 12
BITMAP
D8
D8
90
90
90
ENDCHAR
STARTCHAR c51
ENCODING -1 51
SWIDTH 483 0
DWIDTH 15 0
BBX 12 13 2 0
BITMAP
C000
3000
0C00
0300
00C0
0030
00C0
0300
0C00
3000
C000
0000
FFF0
ENDCHAR
STARTCHAR c52
ENCODING -1 52
SWIDTH 419 0
DWIDTH 13 0
BBX 11 11 1 1
BITMAP
8020
4040
2080
1100
0A00
0400
0A00
1100
2080
4040
8020
ENDCHAR
STARTCHAR c53
ENCODING -1 53
SWIDTH 612 0
DWIDTH 19 0
BBX 16 9 2 2
BITMAP
3E0F
4110
80A0
8040
8040
8040
80A0
4110
3E0F
ENDCHAR
STARTCHAR c54
ENCODING -1 54
SWIDTH 419 0
DWIDTH 13 0
BBX 11 17 1 0
BITMAP
F000
0C00
0200
0100
0080
0040
0040
1E20
6120
4020
8020
8020
8020
8040
4040
6180
1E00
ENDCHAR
STARTCHAR c55
ENCODING -1 55
SWIDTH 354 0
DWIDTH 11 0
BBX 6 6 3 4
BITMAP
78
FC
FC
FC
FC
78
ENDCHAR
STARTCHAR c56
ENCODING -1 56
SWIDTH 451 0
DWIDTH 14 0
BBX 12 9 1 2
BITMAP
0600
0600
0000
0000
FFF0
0000
0000
0600
0600
ENDCHAR
STARTCHAR c57
ENCODING -1 57
SWIDTH 451 0
DWIDTH 14 0
BBX 12 13 1 0
BITMAP
0100
0100
0100
0200
FFF0
0200
0200
0400
FFF0
0400
0800
0800
0800
ENDCHAR
STARTCHAR c58
ENCODING -1 58
SWIDTH 516 0
DWIDTH 16 0
BBX 12 9 2 2
BITMAP
FFF0
0000
0000
0000
FFF0
0000
0000
0000
FFF0
ENDCHAR
STARTCHAR c59
ENCODING -1 59
SWIDTH 483 0
DWIDTH 15 0
BBX 13 7 1 3
BITMAP
3C08
4210
81E0
0000
3C08
4210
81E0
ENDCHAR
STARTCHAR c60
ENCODING -1 60
SWIDTH 516 0
DWIDTH 16 0
BBX 12 2 2 0
BITMAP
C630
C630
ENDCHAR
STARTCHAR c61
ENCODING -1 61
SWIDTH 290 0
DWIDTH 9 0
BBX 1 21 4 -3
BITMAP
80
80
80
80
80
80
80
80
80
80
80
80
80
80
80
80
80
80
80
80
80
ENDCHAR
STARTCHAR c62
ENCODING -1 62
SWIDTH 322 0
DWIDTH 10 0
BBX 10 1 0 6
BITMAP
FFC0
ENDCHAR
STARTCHAR c63
ENCODING -1 63
SWIDTH 516 0
DWIDTH 16 0
BBX 13 12 1 -7
BITMAP
0008
0008
0008
0808
1008
2008
4008
FFF8
4000
2000
1000
0800
ENDCHAR
STARTCHAR c64
ENCODING -1 64
SWIDTH 516 0
DWIDTH 16 0
BBX 14 18 1 -1
BITMAP
2020
7070
3038
181C
1C14
1C10
1620
1720
2320
21A0
21C0
20C0
3060
1870
1830
7018
7018
8010
ENDCHAR
STARTCHAR c65
ENCODING -1 65
SWIDTH 483 0
DWIDTH 15 0
BBX 12 17 1 0
BITMAP
1E00
23C0
40F0
4020
8040
8080
8180
40C0
30C0
0060
0060
0030
0030
3030
7820
9C40
0F80
ENDCHAR
STARTCHAR c66
ENCODING -1 66
SWIDTH 645 0
DWIDTH 20 0
BBX 19 17 1 0
BITMAP
1E0400
631E00
41A700
81A380
80C100
C0C200
60C400
30C800
18D800
08CC00
10CC00
008C00
018600
010600
310620
7A0340
9C0380
ENDCHAR
STARTCHAR c67
ENCODING -1 67
SWIDTH 548 0
DWIDTH 17 0
BBX 13 19 2 -6
BITMAP
21C0
4630
8410
8808
8808
9008
9008
5008
6008
2010
3010
5060
4B80
8800
8400
8400
8400
8800
7000
ENDCHAR
STARTCHAR c68
ENCODING -1 68
SWIDTH 483 0
DWIDTH 15 0
BBX 13 13 1 0
BITMAP
0F80
3060
4010
5050
8888
8508
8208
8508
8888
5050
4010
3060
0F80
ENDCHAR
STARTCHAR c69
ENCODING -1 69
SWIDTH 483 0
DWIDTH 15 0
BBX 13 13 1 0
BITMAP
0F80
3060
4210
4210
8208
8208
BFE8
8208
8208
4210
4210
3060
0F80
ENDCHAR
STARTCHAR c70
ENCODING -1 70
SWIDTH 483 0
DWIDTH 15 0
BBX 13 19 1 -3
BITMAP
0080
0080
0080
0F80
3160
4110
4110
8208
8208
8208
8208
8208
4410
4410
3460
0F80
0800
0800
0800
ENDCHAR
STARTCHAR c71
ENCODING -1 71
SWIDTH 483 0
DWIDTH 15 0
BBX 13 10 1 1
BITMAP
0F80
3060
4010
4010
8008
8008
8008
8008
8008
8008
ENDCHAR
STARTCHAR c72
ENCODING -1 72
SWIDTH 483 0
DWIDTH 15 0
BBX 13 10 1 1
BITMAP
8008
8008
8008
8008
8008
8008
4010
4010
3060
0F80
ENDCHAR
STARTCHAR c73
ENCODING -1 73
SWIDTH 387 0
DWIDTH 12 0
BBX 9 13 1 0
BITMAP
F800
0600
0100
0100
0080
0080
0080
0080
0080
0100
0100
0600
F800
ENDCHAR
STARTCHAR c74
ENCODING -1 74
SWIDTH 354 0
DWIDTH 11 0
BBX 8 13 1 0
BITMAP
F8
04
02
01
01
01
01
02
04
F8
00
00
FF
ENDCHAR
STARTCHAR c75
ENCODING -1 75
SWIDTH 387 0
DWIDTH 12 0
BBX 10 18 2 -2
BITMAP
0080
0080
0080
0FC0
3100
4100
4100
8100
8200
8200
8200
8400
4400
4400
3400
0F80
0800
0800
ENDCHAR
STARTCHAR c76
ENCODING -1 76
SWIDTH 387 0
DWIDTH 12 0
BBX 9 13 2 0
BITMAP
0F80
3000
4000
4000
8000
8000
8000
8000
8000
4000
4000
3000
0F80
ENDCHAR
STARTCHAR c77
ENCODING -1 77
SWIDTH 354 0
DWIDTH 11 0
BBX 8 13 2 0
BITMAP
1F
20
40
80
80
80
80
40
20
1F
00
00
FF
ENDCHAR
STARTCHAR c78
ENCODING -1 78
SWIDTH 387 0
DWIDTH 12 0
BBX 9 13 2 0
BITMAP
0F80
3000
4000
4000
8000
8000
FF80
8000
8000
4000
4000
3000
0F80
ENDCHAR
STARTCHAR c79
ENCODING -1 79
SWIDTH 419 0
DWIDTH 13 0
BBX 10 18 2 -2
BITMAP
0080
0080
0080
0FC0
3100
4100
4100
8200
8200
FF80
8200
8200
4400
4400
3400
0F80
0800
0800
ENDCHAR
STARTCHAR c80
ENCODING -1 80
SWIDTH 580 0
DWIDTH 18 0
BBX 15 15 2 -3
BITMAP
0010
0020
1040
0880
0500
0200
0500
0900
1080
2080
4040
FFFE
0040
0040
0040
ENDCHAR
STARTCHAR c81
ENCODING -1 81
SWIDTH 483 0
DWIDTH 15 0
BBX 13 17 1 0
BITMAP
FFF8
8008
8008
4010
4010
2020
2020
2020
1040
1040
0880
0880
0880
0500
0500
0200
0200
ENDCHAR
STARTCHAR c82
ENCODING -1 82
SWIDTH 483 0
DWIDTH 15 0
BBX 13 17 1 0
BITMAP
8008
8008
8008
4010
4010
2020
3FE0
2020
1040
1040
0880
0880
0880
0500
0500
0200
0200
ENDCHAR
STARTCHAR c83
ENCODING -1 83
SWIDTH 419 0
DWIDTH 13 0
BBX 8 17 2 0
BITMAP
FF
01
01
01
01
01
01
01
FF
01
01
01
01
01
01
01
FF
ENDCHAR
STARTCHAR c84
ENCODING -1 84
SWIDTH 387 0
DWIDTH 12 0
BBX 9 13 2 0
BITMAP
F800
0600
0100
0100
0080
0080
FF80
0080
0080
0100
0100
0600
F800
ENDCHAR
STARTCHAR c85
ENCODING -1 85
SWIDTH 548 0
DWIDTH 17 0
BBX 11 17 3 0
BITMAP
FFE0
8020
8020
8020
8020
8020
8020
8020
8020
8020
8020
8020
8020
8020
8020
8020
8020
ENDCHAR
STARTCHAR c86
ENCODING -1 86
SWIDTH 387 0
DWIDTH 12 0
BBX 11 19 1 0
BITMAP
0020
0020
0020
0040
0040
0040
0040
E080
2080
2080
1100
1100
1100
0A00
0A00
0A00
0400
0400
0400
ENDCHAR
STARTCHAR c87
ENCODING -1 87
SWIDTH 225 0
DWIDTH 7 0
BBX 2 2 3 5
BITMAP
C0
C0
ENDCHAR
STARTCHAR c88
ENCODING -1 88
SWIDTH 483 0
DWIDTH 15 0
BBX 12 6 1 2
BITMAP
FFF0
0010
0010
0010
0010
0010
ENDCHAR
STARTCHAR c89
ENCODING -1 89
SWIDTH 387 0
DWIDTH 12 0
BBX 10 13 1 0
BITMAP
0C00
0C00
1200
1200
1200
2100
2100
4080
4080
4080
8040
8040
8040
ENDCHAR
STARTCHAR c90
ENCODING -1 90
SWIDTH 387 0
DWIDTH 12 0
BBX 10 13 1 0
BITMAP
8040
8040
8040
4080
4080
4080
2100
2100
1200
1200
1200
0C00
0C00
ENDCHAR
STARTCHAR c91
ENCODING -1 91
SWIDTH 774 0
DWIDTH 24 0
BBX 22 13 1 0
BITMAP
020100
040080
080040
100020
3FFFF0
400008
800004
400008
3FFFF0
100020
080040
040080
020100
ENDCHAR
STARTCHAR c92
ENCODING -1 92
SWIDTH 645 0
DWIDTH 20 0
BBX 17 13 1 0
BITMAP
020000
040000
080000
100000
3FFF80
400000
800000
400000
3FFF80
100000
080000
040000
020000
ENDCHAR
STARTCHAR c93
ENCODING -1 93
SWIDTH 419 0
DWIDTH 13 0
BBX 13 17 0 0
BITMAP
0200
0500
0880
18C0
28A0
4890
8888
0880
0880
0880
0880
0880
0880
0880
0880
0880
0880
ENDCHAR
STARTCHAR c94
ENCODING -1 94
SWIDTH 645 0
DWIDTH 20 0
BBX 17 13 2 0
BITMAP
002000
001000
000800
000400
FFFE00
000100
000080
000100
FFFE00
000400
000800
001000
002000
ENDCHAR
STARTCHAR c95
ENCODING -1 95
SWIDTH 419 0
DWIDTH 13 0
BBX 13 17 0 0
BITMAP
0880
0880
0880
0880
0880
0880
0880
0880
0880
0880
8888
4890
28A0
18C0
0880
0500
0200
ENDCHAR
STARTCHAR c96
ENCODING -1 96
SWIDTH 419 0
DWIDTH 13 0
BBX 8 13 3 0
BITMAP
FF
FF
FF
FF
FF
FF
FF
FF
FF
FF
FF
FF
FF
ENDCHAR
STARTCHAR c97
ENCODING -1 97
SWIDTH 258 0
DWIDTH 8 0
BBX 5 20 1 -3
BITMAP
08
08
10
10
20
20
40
40
80
80
80
80
40
40
20
20
10
10
08
08
ENDCHAR
STARTCHAR c98
ENCODING -1 98
SWIDTH 516 0
DWIDTH 16 0
BBX 12 13 3 0
BITMAP
8000
8000
8000
8000
8000
8000
FFF0
8000
8000
8000
8000
8000
8000
ENDCHAR
STARTCHAR c99
ENCODING -1 99
SWIDTH 516 0
DWIDTH 16 0
BBX 12 13 3 0
BITMAP
8000
8000
8000
8000
FFF0
8000
8000
8000
FFF0
8000
8000
8000
8000
ENDCHAR
STARTCHAR c100
ENCODING -1 100
SWIDTH 516 0
DWIDTH 16 0
BBX 12 13 1 0
BITMAP
0010
0010
0010
0010
0010
0010
FFF0
0010
0010
0010
0010
0010
0010
ENDCHAR
STARTCHAR c101
ENCODING -1 101
SWIDTH 419 0
DWIDTH 13 0
BBX 11 17 1 0
BITMAP
FFE0
4000
2000
1000
0800
0400
0200
0100
0080
0100
0200
0400
0800
1000
2000
4000
FFE0
ENDCHAR
STARTCHAR c102
ENCODING -1 102
SWIDTH 483 0
DWIDTH 15 0
BBX 14 13 0 0
BITMAP
000C
0030
00C0
030C
0C30
30C0
C300
30C0
0C30
030C
00C0
0030
000C
ENDCHAR
STARTCHAR c103
ENCODING -1 103
SWIDTH 483 0
DWIDTH 15 0
BBX 14 13 1 0
BITMAP
C000
3000
0C00
C300
30C0
0C30
030C
0C30
30C0
C300
0C00
3000
C000
ENDCHAR
STARTCHAR c104
ENCODING -1 104
SWIDTH 322 0
DWIDTH 10 0
BBX 6 13 3 0
BITMAP
FC
80
80
80
80
80
80
80
80
80
80
80
80
ENDCHAR
STARTCHAR c105
ENCODING -1 105
SWIDTH 322 0
DWIDTH 10 0
BBX 6 13 1 0
BITMAP
FC
04
04
04
04
04
04
04
04
04
04
04
04
ENDCHAR
STARTCHAR c106
ENCODING -1 106
SWIDTH 322 0
DWIDTH 10 0
BBX 6 13 3 0
BITMAP
80
80
80
80
80
80
80
80
80
80
80
80
FC
ENDCHAR
STARTCHAR c107
ENCODING -1 107
SWIDTH 322 0
DWIDTH 10 0
BBX 6 13 1 0
BITMAP
04
04
04
04
04
04
04
04
04
04
04
04
FC
ENDCHAR
STARTCHAR c108
ENCODING -1 108
SWIDTH 354 0
DWIDTH 11 0
BBX 5 13 3 0
BITMAP
88
88
88
88
88
88
88
88
88
88
88
88
88
ENDCHAR
STARTCHAR c109
ENCODING -1 109
SWIDTH 483 0
DWIDTH 15 0
BBX 11 13 2 0
BITMAP
FFE0
0000
0400
0400
0400
0400
0400
FFE0
0400
0400
0400
0400
0400
ENDCHAR
STARTCHAR c110
ENCODING -1 110
SWIDTH 322 0
DWIDTH 10 0
BBX 7 13 1 0
BITMAP
02
02
02
04
04
18
E0
E0
18
04
04
02
02
ENDCHAR
STARTCHAR c111
ENCODING -1 111
SWIDTH 322 0
DWIDTH 10 0
BBX 7 13 2 0
BITMAP
80
80
80
40
40
30
0E
0E
30
40
40
80
80
ENDCHAR
STARTCHAR c112
ENCODING -1 112
SWIDTH 483 0
DWIDTH 15 0
BBX 12 7 2 3
BITMAP
3810
4410
8220
81C0
0000
0000
FFF0
ENDCHAR
STARTCHAR c113
ENCODING -1 113
SWIDTH 258 0
DWIDTH 8 0
BBX 5 20 2 -3
BITMAP
80
80
40
40
20
20
10
10
08
08
08
08
10
10
20
20
40
40
80
80
ENDCHAR
STARTCHAR c114
ENCODING -1 114
SWIDTH 387 0
DWIDTH 12 0
BBX 10 18 0 -3
BITMAP
0400
0400
7C00
0B00
0880
0880
0840
1040
1040
1040
2040
2080
2080
2300
FC00
4000
4000
4000
ENDCHAR
STARTCHAR c115
ENCODING -1 115
SWIDTH 451 0
DWIDTH 14 0
BBX 11 19 1 -6
BITMAP
0600
0100
0080
0040
0040
0020
0020
0020
0020
0020
0840
1040
2080
4300
FC00
4000
2000
1000
0800
ENDCHAR
STARTCHAR c116
ENCODING -1 116
SWIDTH 612 0
DWIDTH 19 0
BBX 17 18 1 -2
BITMAP
040000
080000
100000
200000
400000
FFFF80
400000
201000
100800
080400
040200
000100
FFFF80
000100
000200
000400
000800
001000
ENDCHAR
STARTCHAR c117
ENCODING -1 117
SWIDTH 419 0
DWIDTH 13 0
BBX 11 14 1 -7
BITMAP
FE00
0200
0200
0200
0200
0200
0200
0200
0200
2220
1240
0A80
0700
0200
ENDCHAR
STARTCHAR c118
ENCODING -1 118
SWIDTH 419 0
DWIDTH 13 0
BBX 9 20 2 -3
BITMAP
3E00
4180
8000
8000
8000
6000
3C00
4300
8080
8080
8080
8080
6100
1E00
0100
0080
0080
0080
C100
3E00
ENDCHAR
STARTCHAR c119
ENCODING -1 119
SWIDTH 612 0
DWIDTH 19 0
BBX 17 15 1 -1
BITMAP
040000
080000
100000
200000
400000
FFFF80
000000
000000
000000
FFFF80
000100
000200
000400
000800
001000
ENDCHAR
STARTCHAR c120
ENCODING -1 120
SWIDTH 225 0
DWIDTH 7 0
BBX 7 26 0 -7
BITMAP
06
08
10
10
10
10
10
10
10
10
10
10
10
10
10
10
10
10
10
10
10
10
10
10
20
C0
ENDCHAR
STARTCHAR c121
ENCODING -1 121
SWIDTH 290 0
DWIDTH 9 0
BBX 9 26 0 -7
BITMAP
0300
0400
0800
0800
0800
0800
0800
0800
0800
3E00
4900
8880
8880
8880
4900
3E00
0800
0800
0800
0800
0800
0800
0800
0800
1000
6000
ENDCHAR
STARTCHAR c122
ENCODING -1 122
SWIDTH 419 0
DWIDTH 13 0
BBX 11 10 1 0
BITMAP
C060
C060
0000
0000
0000
0000
0000
0000
0C00
0C00
ENDCHAR
STARTCHAR c123
ENCODING -1 123
SWIDTH 483 0
DWIDTH 15 0
BBX 12 9 2 3
BITMAP
0600
0600
0000
0000
FFF0
0000
0000
0000
FFF0
ENDCHAR
STARTCHAR c124
ENCODING -1 124
SWIDTH 161 0
DWIDTH 5 0
BBX 2 2 2 15
BITMAP
C0
C0
ENDCHAR
STARTCHAR c125
ENCODING -1 125
SWIDTH 419 0
DWIDTH 13 0
BBX 11 19 1 -2
BITMAP
0400
0400
0400
0400
0400
FFE0
0400
0400
0400
0400
0400
0400
0400
0400
0400
0400
0400
0400
0400
ENDCHAR
STARTCHAR c126
ENCODING -1 126
SWIDTH 354 0
DWIDTH 11 0
BBX 9 19 1 -3
BITMAP
0100
0100
0100
0F80
3200
4200
4200
8400
8400
8400
8400
8800
8800
4800
2980
1E00
1000
1000
1000
ENDCHAR
ENDFONT
